# xmcd CD database file
#
# Track frame offsets:
#	150
#	22067
#	43450
#	60080
#	78495
#	93467
#	113385
#	128480
#	147535
#	162507
#	197530
#
# Disc length: 4211 seconds
#
# Revision: 0
# Processed by: cddbd v1.5PL3 Copyright (c) Steve Scherf et al.
# Submitted via: CDex 1.50
#
DISCID=8f10710b
DTITLE=Priere - on your mark
DYEAR=2004
DGENRE=JPop
TTITLE0=one love，one world
TTITLE1=Catch my star
TTITLE2=友情と恋愛の間
TTITLE3=君しか見えない
TTITLE4=Shake it × 2
TTITLE5=Cotton Candy
TTITLE6=Heartbeat
TTITLE7=Capsule
TTITLE8=Way you love me
TTITLE9=Secret…my love
TTITLE10=データ
EXTD=YEAR: 2004
EXTT0=
EXTT1=
EXTT2=
EXTT3=
EXTT4=
EXTT5=
EXTT6=
EXTT7=
EXTT8=
EXTT9=
EXTT10=
PLAYORDER=
